<svg width="505" height="495" viewBox="0 0 505 495" fill="none" xmlns="http://www.w3.org/2000/svg">
<path d="M464.57 218.69C464.57 218.69 400.57 62.57 283.57 32.43C166.57 2.29 117.5 94.46 99.57 158.4C81.64 222.34 15.57 306.98 21.57 365.12C27.27 420.38 75.7 446.51 120.93 457.73C178.42 471.98 243.75 473.06 301.45 461.18C315.18 458.35 328.65 454.56 342.02 450.2C369.13 441.36 395.74 434.51 423.21 427.18C475.45 413.24 496.15 357.13 490.26 303.44C486.93 273.22 475.86 246.19 464.57 218.69Z" fill="#1D77BD"/>
<path opacity="0.7" d="M464.57 218.69C464.57 218.69 400.57 62.57 283.57 32.43C166.57 2.29 117.5 94.46 99.57 158.4C81.64 222.34 15.57 306.98 21.57 365.12C27.27 420.38 75.7 446.51 120.93 457.73C178.42 471.98 243.75 473.06 301.45 461.18C315.18 458.35 328.65 454.56 342.02 450.2C369.13 441.36 395.74 434.51 423.21 427.18C475.45 413.24 496.15 357.13 490.26 303.44C486.93 273.22 475.86 246.19 464.57 218.69Z" fill="white"/>
<path d="M431.41 47.3H245.91V304.14H431.41V47.3Z" stroke="#263238" stroke-miterlimit="10" stroke-linecap="round" stroke-linejoin="round"/>
<path d="M338.66 47.45V305.04" stroke="#263238" stroke-miterlimit="10" stroke-linecap="round" stroke-linejoin="round"/>
<path d="M431.56 176.25H245.75" stroke="#263238" stroke-miterlimit="10" stroke-linecap="round" stroke-linejoin="round"/>
<path d="M431.56 111.75H245.75" stroke="#263238" stroke-miterlimit="10" stroke-linecap="round" stroke-linejoin="round"/>
<path d="M431.56 240.75H245.75" stroke="#263238" stroke-miterlimit="10" stroke-linecap="round" stroke-linejoin="round"/>
<path d="M397.75 141.52L379.68 158.9" stroke="#263238" stroke-miterlimit="10" stroke-linecap="round" stroke-linejoin="round"/>
<path d="M424.65 115.66L403.04 136.43" stroke="#263238" stroke-miterlimit="10" stroke-linecap="round" stroke-linejoin="round"/>
<path d="M378.36 150.62L372.62 156.14" stroke="#263238" stroke-miterlimit="10" stroke-linecap="round" stroke-linejoin="round"/>
<path d="M403.03 126.9L382.32 146.81" stroke="#263238" stroke-miterlimit="10" stroke-linecap="round" stroke-linejoin="round"/>
<path d="M297.43 82.71L279.36 100.09" stroke="#263238" stroke-miterlimit="10" stroke-linecap="round" stroke-linejoin="round"/>
<path d="M324.33 56.85L302.72 77.63" stroke="#263238" stroke-miterlimit="10" stroke-linecap="round" stroke-linejoin="round"/>
<path d="M278.04 91.81L272.3 97.33" stroke="#263238" stroke-miterlimit="10" stroke-linecap="round" stroke-linejoin="round"/>
<path d="M302.71 68.1L282 88" stroke="#263238" stroke-miterlimit="10" stroke-linecap="round" stroke-linejoin="round"/>
<path d="M393.43 209.84L375.35 227.22" stroke="#263238" stroke-miterlimit="10" stroke-linecap="round" stroke-linejoin="round"/>
<path d="M420.32 183.98L398.72 204.76" stroke="#263238" stroke-miterlimit="10" stroke-linecap="round" stroke-linejoin="round"/>
<path d="M374.04 218.94L368.3 224.46" stroke="#263238" stroke-miterlimit="10" stroke-linecap="round" stroke-linejoin="round"/>
<path d="M398.7 195.23L378 215.13" stroke="#263238" stroke-miterlimit="10" stroke-linecap="round" stroke-linejoin="round"/>
<path d="M399.5 280.38L398.72 273.7C398.72 273.7 395.17 273.91 393.8 270.82C392.97 268.95 392.13 265.16 393.35 263.29C395.01 260.75 398.68 261.09 399.74 264.14C400.69 266.86 401.15 268.02 401.15 268.02C400.92 264.09 397.96 248.26 406.87 250.67C410.49 251.65 411.48 255.15 411.64 257.91C411.8 260.67 411.42 267.82 411.42 267.82C411.42 267.82 413.81 268.08 413.98 264.11C414.15 260.14 418 258.34 419.69 260.22C421.38 262.1 422.17 268.78 420.31 270.87C418.45 272.96 412.56 273.69 412.56 273.69L412.95 280.4L399.5 280.38Z" fill="#1D77BD" stroke="#263238" stroke-miterlimit="10" stroke-linecap="round" stroke-linejoin="round"/>
<path d="M404.62 251.77C404.62 251.77 403.15 253.11 403.55 257.66C403.95 262.21 403.95 270.38 403.95 270.38" stroke="#263238" stroke-width="0.5" stroke-miterlimit="10" stroke-linecap="round" stroke-linejoin="round"/>
<path d="M408.51 254.85C408.51 254.85 410.25 254.58 409.72 258.73C409.18 262.88 409.72 269.18 409.72 269.18" stroke="#263238" stroke-width="0.5" stroke-miterlimit="10" stroke-linecap="round" stroke-linejoin="round"/>
<path d="M395.92 263.69C395.92 263.69 394.18 264.09 394.98 266.9C395.78 269.71 396.05 271.86 397.93 272.26C399.81 272.66 400.47 272.66 400.47 272.66L400.74 275.61" stroke="#263238" stroke-width="0.5" stroke-miterlimit="10" stroke-linecap="round" stroke-linejoin="round"/>
<path d="M412.79 272.13C412.79 272.13 418.28 272.26 419.35 269.99C420.42 267.71 419.75 263.83 419.75 263.83" stroke="#263238" stroke-width="0.5" stroke-miterlimit="10" stroke-linecap="round" stroke-linejoin="round"/>
<path d="M398.19 264.43C398.19 264.69 397.98 264.9 397.72 264.9C397.46 264.9 397.25 264.69 397.25 264.43C397.25 264.17 397.46 263.96 397.72 263.96C397.98 263.96 398.19 264.17 398.19 264.43Z" stroke="#263238" stroke-width="0.5" stroke-miterlimit="10" stroke-linecap="round" stroke-linejoin="round"/>
<path d="M399.33 270.32C399.59 270.32 399.8 270.11 399.8 269.85C399.8 269.59 399.59 269.38 399.33 269.38C399.07 269.38 398.86 269.59 398.86 269.85C398.86 270.11 399.07 270.32 399.33 270.32Z" stroke="#263238" stroke-width="0.5" stroke-miterlimit="10" stroke-linecap="round" stroke-linejoin="round"/>
<path d="M396.99 268.11C397.25 268.11 397.46 267.9 397.46 267.64C397.46 267.38 397.25 267.17 396.99 267.17C396.73 267.17 396.52 267.38 396.52 267.64C396.52 267.9 396.73 268.11 396.99 268.11Z" stroke="#263238" stroke-width="0.5" stroke-miterlimit="10" stroke-linecap="round" stroke-linejoin="round"/>
<path d="M406.5 262.55C406.76 262.55 406.97 262.34 406.97 262.08C406.97 261.82 406.76 261.61 406.5 261.61C406.24 261.61 406.03 261.82 406.03 262.08C406.03 262.34 406.24 262.55 406.5 262.55Z" stroke="#263238" stroke-width="0.5" stroke-miterlimit="10" stroke-linecap="round" stroke-linejoin="round"/>
<path d="M402.08 258C402.34 258 402.55 257.79 402.55 257.53C402.55 257.27 402.34 257.06 402.08 257.06C401.82 257.06 401.61 257.27 401.61 257.53C401.61 257.79 401.82 258 402.08 258Z" stroke="#263238" stroke-width="0.5" stroke-miterlimit="10" stroke-linecap="round" stroke-linejoin="round"/>
<path d="M408.51 273.87C408.51 274.13 408.3 274.34 408.04 274.34C407.78 274.34 407.57 274.13 407.57 273.87C407.57 273.61 407.78 273.4 408.04 273.4C408.3 273.4 408.51 273.61 408.51 273.87Z" stroke="#263238" stroke-width="0.5" stroke-miterlimit="10" stroke-linecap="round" stroke-linejoin="round"/>
<path d="M403.42 273.2C403.42 273.46 403.21 273.67 402.95 273.67C402.69 273.67 402.48 273.46 402.48 273.2C402.48 272.94 402.69 272.73 402.95 272.73C403.21 272.73 403.42 272.94 403.42 273.2Z" stroke="#263238" stroke-width="0.5" stroke-miterlimit="10" stroke-linecap="round" stroke-linejoin="round"/>
<path d="M407.3 253.71C407.56 253.71 407.77 253.5 407.77 253.24C407.77 252.98 407.56 252.77 407.3 252.77C407.04 252.77 406.83 252.98 406.83 253.24C406.83 253.5 407.04 253.71 407.3 253.71Z" stroke="#263238" stroke-width="0.5" stroke-miterlimit="10" stroke-linecap="round" stroke-linejoin="round"/>
<path d="M417.28 262.15C417.28 262.41 417.07 262.62 416.81 262.62C416.55 262.62 416.34 262.41 416.34 262.15C416.34 261.89 416.55 261.68 416.81 261.68C417.07 261.68 417.28 261.89 417.28 262.15Z" stroke="#263238" stroke-width="0.5" stroke-miterlimit="10" stroke-linecap="round" stroke-linejoin="round"/>
<path d="M415.6 268.98C415.86 268.98 416.07 268.77 416.07 268.51C416.07 268.25 415.86 268.04 415.6 268.04C415.34 268.04 415.13 268.25 415.13 268.51C415.13 268.77 415.34 268.98 415.6 268.98Z" stroke="#263238" stroke-width="0.5" stroke-miterlimit="10" stroke-linecap="round" stroke-linejoin="round"/>
<path d="M407.3 268.85C407.56 268.85 407.77 268.64 407.77 268.38C407.77 268.12 407.56 267.91 407.3 267.91C407.04 267.91 406.83 268.12 406.83 268.38C406.83 268.64 407.04 268.85 407.3 268.85Z" stroke="#263238" stroke-width="0.5" stroke-miterlimit="10" stroke-linecap="round" stroke-linejoin="round"/>
<path d="M417.97 276.06H393.87L396.28 295.82H415.56L417.97 276.06Z" fill="white" stroke="#263238" stroke-miterlimit="10" stroke-linecap="round" stroke-linejoin="round"/>
<path d="M59.22 239.62L77.67 416.36" stroke="#263238" stroke-width="2" stroke-miterlimit="10"/>
<path d="M74.69 382.54L66.33 373.7" stroke="#263238" stroke-width="2" stroke-miterlimit="10"/>
<path d="M68.87 376.35C68.87 376.35 69.11 372.44 65.54 369.26C63.39 367.34 52.1 362.59 51.03 366.57C49.86 370.89 61.43 379.39 68.87 376.35Z" fill="#1D77BD" stroke="#263238" stroke-miterlimit="10"/>
<path d="M68.87 376.35L58.12 369.65" stroke="#263238" stroke-width="0.5" stroke-miterlimit="10"/>
<path d="M76.79 402.64L68.43 393.8" stroke="#263238" stroke-width="2" stroke-miterlimit="10"/>
<path d="M70.97 396.45C70.97 396.45 71.21 392.54 67.64 389.36C65.49 387.44 54.2 382.69 53.13 386.67C51.96 390.99 63.52 399.49 70.97 396.45Z" fill="#1D77BD" stroke="#263238" stroke-miterlimit="10"/>
<path d="M70.97 396.45L60.22 389.75" stroke="#263238" stroke-width="0.5" stroke-miterlimit="10"/>
<path d="M69.57 333.49L61.21 324.66" stroke="#263238" stroke-width="2" stroke-miterlimit="10"/>
<path d="M63.75 327.3C63.75 327.3 63.99 323.39 60.42 320.21C58.27 318.29 46.98 313.54 45.91 317.52C44.75 321.85 56.31 330.34 63.75 327.3Z" fill="#1D77BD" stroke="#263238" stroke-miterlimit="10"/>
<path d="M63.75 327.3L53 320.6" stroke="#263238" stroke-width="0.5" stroke-miterlimit="10"/>
<path d="M71.67 353.59L63.31 344.76" stroke="#263238" stroke-width="2" stroke-miterlimit="10"/>
<path d="M65.85 347.4C65.85 347.4 66.09 343.49 62.52 340.31C60.37 338.39 49.08 333.64 48.01 337.62C46.84 341.95 58.41 350.44 65.85 347.4Z" fill="#1D77BD" stroke="#263238" stroke-miterlimit="10"/>
<path d="M65.85 347.4L55.1 340.7" stroke="#263238" stroke-width="0.5" stroke-miterlimit="10"/>
<path d="M66.17 300.84L57.81 292.01" stroke="#263238" stroke-width="2" stroke-miterlimit="10"/>
<path d="M60.35 294.65C60.35 294.65 60.59 290.74 57.02 287.56C54.87 285.64 43.58 280.89 42.51 284.87C41.34 289.2 52.9 297.69 60.35 294.65Z" fill="#1D77BD" stroke="#263238" stroke-miterlimit="10"/>
<path d="M60.35 294.65L49.59 287.95" stroke="#263238" stroke-width="0.5" stroke-miterlimit="10"/>
<path d="M62.74 268.04L54.38 259.21" stroke="#263238" stroke-width="2" stroke-miterlimit="10"/>
<path d="M56.92 261.86C56.92 261.86 57.16 257.95 53.59 254.77C51.44 252.85 40.15 248.1 39.08 252.08C37.92 256.4 49.48 264.9 56.92 261.86Z" fill="#1D77BD" stroke="#263238" stroke-miterlimit="10"/>
<path d="M56.92 261.86L46.17 255.16" stroke="#263238" stroke-width="0.5" stroke-miterlimit="10"/>
<path d="M73.29 370.64L79.65 360.28" stroke="#263238" stroke-width="2" stroke-miterlimit="10"/>
<path d="M77.71 363.39C77.71 363.39 76.67 359.62 79.5 355.76C81.2 353.44 91.28 346.46 93.15 350.13C95.18 354.13 85.62 364.83 77.71 363.39Z" fill="#1D77BD" stroke="#263238" stroke-miterlimit="10"/>
<path d="M77.71 363.39L87.39 354.13" stroke="#263238" stroke-width="0.5" stroke-miterlimit="10"/>
<path d="M67.77 317.75L74.13 307.38" stroke="#263238" stroke-width="2" stroke-miterlimit="10"/>
<path d="M72.19 310.5C72.19 310.5 71.15 306.73 73.98 302.87C75.68 300.55 85.76 293.57 87.63 297.24C89.66 301.23 80.1 311.93 72.19 310.5Z" fill="#1D77BD" stroke="#263238" stroke-miterlimit="10"/>
<path d="M72.19 310.5L81.87 301.24" stroke="#263238" stroke-width="0.5" stroke-miterlimit="10"/>
<path d="M65.34 294.51L71.7 284.14" stroke="#263238" stroke-width="2" stroke-miterlimit="10"/>
<path d="M69.76 287.25C69.76 287.25 68.72 283.48 71.55 279.62C73.25 277.3 83.33 270.32 85.2 273.99C87.23 277.99 77.67 288.69 69.76 287.25Z" fill="#1D77BD" stroke="#263238" stroke-miterlimit="10"/>
<path d="M69.76 287.25L79.44 278" stroke="#263238" stroke-width="0.5" stroke-miterlimit="10"/>
<path d="M61.79 260.43L68.14 250.06" stroke="#263238" stroke-width="2" stroke-miterlimit="10"/>
<path d="M66.2 253.18C66.2 253.18 65.16 249.41 67.99 245.55C69.69 243.23 79.77 236.25 81.64 239.92C83.68 243.91 74.12 254.61 66.2 253.18Z" fill="#1D77BD" stroke="#263238" stroke-miterlimit="10"/>
<path d="M66.2 253.18L75.89 243.92" stroke="#263238" stroke-width="0.5" stroke-miterlimit="10"/>
<path d="M59.07 238.64C59.07 238.64 58.03 234.87 60.86 231.01C62.56 228.69 72.64 221.71 74.51 225.38C76.54 229.38 66.98 240.08 59.07 238.64Z" fill="#1D77BD" stroke="#263238" stroke-miterlimit="10"/>
<path d="M59.07 238.64L68.75 229.39" stroke="#263238" stroke-width="0.5" stroke-miterlimit="10"/>
<path d="M59.63 239.04C59.63 239.04 55.77 239.68 52.23 236.46C50.1 234.52 44.22 223.77 48.06 222.3C52.25 220.7 61.89 231.32 59.63 239.04Z" fill="#1D77BD" stroke="#263238" stroke-miterlimit="10"/>
<path d="M59.63 239.04L51.44 228.44" stroke="#263238" stroke-width="0.5" stroke-miterlimit="10"/>
<path d="M107.87 263.96L89.53 440.71" stroke="#263238" stroke-width="2" stroke-miterlimit="10"/>
<path d="M93.58 407L87.22 396.63" stroke="#263238" stroke-width="2" stroke-miterlimit="10"/>
<path d="M89.16 399.75C89.16 399.75 90.2 395.98 87.36 392.12C85.65 389.8 75.58 382.83 73.71 386.5C71.68 390.49 81.25 401.19 89.16 399.75Z" fill="#1D77BD" stroke="#263238" stroke-miterlimit="10"/>
<path d="M89.16 399.75L80.02 390.98" stroke="#263238" stroke-width="0.5" stroke-miterlimit="10"/>
<path d="M98.67 357.95L92.31 347.58" stroke="#263238" stroke-width="2" stroke-miterlimit="10"/>
<path d="M94.25 350.7C94.25 350.7 95.29 346.93 92.45 343.07C90.74 340.75 80.67 333.78 78.8 337.45C76.77 341.44 86.34 352.14 94.25 350.7Z" fill="#1D77BD" stroke="#263238" stroke-miterlimit="10"/>
<path d="M94.25 350.7L85.11 341.92" stroke="#263238" stroke-width="0.5" stroke-miterlimit="10"/>
<path d="M96.59 378.05L90.22 367.68" stroke="#263238" stroke-width="2" stroke-miterlimit="10"/>
<path d="M92.16 370.8C92.16 370.8 93.2 367.03 90.36 363.17C88.65 360.85 78.58 353.88 76.71 357.55C74.69 361.54 84.25 372.24 92.16 370.8Z" fill="#1D77BD" stroke="#263238" stroke-miterlimit="10"/>
<path d="M92.16 370.8L83.02 362.03" stroke="#263238" stroke-width="0.5" stroke-miterlimit="10"/>
<path d="M102.06 325.3L95.7 314.93" stroke="#263238" stroke-width="2" stroke-miterlimit="10"/>
<path d="M97.64 318.04C97.64 318.04 98.68 314.27 95.84 310.41C94.13 308.09 84.06 301.12 82.19 304.79C80.16 308.79 89.73 319.49 97.64 318.04Z" fill="#1D77BD" stroke="#263238" stroke-miterlimit="10"/>
<path d="M97.64 318.04L88.5 309.27" stroke="#263238" stroke-width="0.5" stroke-miterlimit="10"/>
<path d="M105.46 292.5L99.1 282.14" stroke="#263238" stroke-width="2" stroke-miterlimit="10"/>
<path d="M101.04 285.25C101.04 285.25 102.08 281.48 99.24 277.62C97.53 275.3 87.46 268.33 85.59 272C83.57 276 93.13 286.69 101.04 285.25Z" fill="#1D77BD" stroke="#263238" stroke-miterlimit="10"/>
<path d="M101.04 285.25L91.9 276.48" stroke="#263238" stroke-width="0.5" stroke-miterlimit="10"/>
<path d="M94.66 395.07L103.01 386.23" stroke="#263238" stroke-width="2" stroke-miterlimit="10"/>
<path d="M100.47 388.88C100.47 388.88 100.23 384.97 103.79 381.79C105.94 379.87 117.23 375.11 118.3 379.09C119.48 383.41 107.92 391.92 100.47 388.88Z" fill="#1D77BD" stroke="#263238" stroke-miterlimit="10"/>
<path d="M100.47 388.88L111.86 381.82" stroke="#263238" stroke-width="0.5" stroke-miterlimit="10"/>
<path d="M100.15 342.17L108.5 333.34" stroke="#263238" stroke-width="2" stroke-miterlimit="10"/>
<path d="M105.96 335.99C105.96 335.99 105.72 332.08 109.28 328.9C111.43 326.98 122.72 322.22 123.79 326.2C124.97 330.52 113.41 339.02 105.96 335.99Z" fill="#1D77BD" stroke="#263238" stroke-miterlimit="10"/>
<path d="M105.96 335.99L117.34 328.92" stroke="#263238" stroke-width="0.5" stroke-miterlimit="10"/>
<path d="M102.56 318.93L110.91 310.09" stroke="#263238" stroke-width="2" stroke-miterlimit="10"/>
<path d="M108.38 312.74C108.38 312.74 108.14 308.83 111.7 305.65C113.85 303.73 125.14 298.97 126.21 302.95C127.38 307.27 115.82 315.78 108.38 312.74Z" fill="#1D77BD" stroke="#263238" stroke-miterlimit="10"/>
<path d="M108.38 312.74L119.76 305.68" stroke="#263238" stroke-width="0.5" stroke-miterlimit="10"/>
<path d="M106.09 284.85L114.45 276.01" stroke="#263238" stroke-width="2" stroke-miterlimit="10"/>
<path d="M111.91 278.66C111.91 278.66 111.67 274.75 115.23 271.57C117.38 269.65 128.67 264.89 129.74 268.87C130.92 273.19 119.36 281.7 111.91 278.66Z" fill="#1D77BD" stroke="#263238" stroke-miterlimit="10"/>
<path d="M111.91 278.66L123.29 271.6" stroke="#263238" stroke-width="0.5" stroke-miterlimit="10"/>
<path d="M107.92 262.97C107.92 262.97 107.68 259.06 111.24 255.88C113.39 253.96 124.68 249.2 125.75 253.18C126.92 257.5 115.37 266.01 107.92 262.97Z" fill="#1D77BD" stroke="#263238" stroke-miterlimit="10"/>
<path d="M107.92 262.97L119.3 255.91" stroke="#263238" stroke-width="0.5" stroke-miterlimit="10"/>
<path d="M108.39 263.48C108.39 263.48 104.48 263.31 101.68 259.43C100 257.1 96.45 245.37 100.52 244.72C104.94 244 112.19 256.39 108.39 263.48Z" fill="#1D77BD" stroke="#263238" stroke-miterlimit="10"/>
<path d="M108.39 263.48L102.56 251.42" stroke="#263238" stroke-width="0.5" stroke-miterlimit="10"/>
<path d="M86.85 191.99V415.5" stroke="#263238" stroke-width="2" stroke-miterlimit="10"/>
<path d="M87.03 381.89L79.63 372.24" stroke="#263238" stroke-width="2" stroke-miterlimit="10"/>
<path d="M81.88 375.14C81.88 375.14 82.52 371.28 79.31 367.74C77.37 365.61 66.63 359.71 65.15 363.56C63.54 367.74 74.16 377.39 81.88 375.14Z" fill="#1D77BD" stroke="#263238" stroke-miterlimit="10"/>
<path d="M81.88 375.14L71.88 367.35" stroke="#263238" stroke-width="0.5" stroke-miterlimit="10"/>
<path d="M87.03 339.89L79.63 330.24" stroke="#263238" stroke-width="2" stroke-miterlimit="10"/>
<path d="M81.88 333.13C81.88 333.13 82.52 329.27 79.31 325.73C77.37 323.6 66.63 317.7 65.15 321.55C63.54 325.73 74.16 335.38 81.88 333.13Z" fill="#1D77BD" stroke="#263238" stroke-miterlimit="10"/>
<path d="M81.88 333.13L71.88 325.35" stroke="#263238" stroke-width="0.5" stroke-miterlimit="10"/>
<path d="M87.03 290.58L79.63 280.92" stroke="#263238" stroke-width="2" stroke-miterlimit="10"/>
<path d="M81.88 283.82C81.88 283.82 82.52 279.96 79.31 276.42C77.37 274.29 66.63 268.39 65.15 272.24C63.54 276.42 74.16 286.07 81.88 283.82Z" fill="#1D77BD" stroke="#263238" stroke-miterlimit="10"/>
<path d="M81.88 283.82L71.88 276.04" stroke="#263238" stroke-width="0.5" stroke-miterlimit="10"/>
<path d="M87.03 257.75L79.63 248.1" stroke="#263238" stroke-width="2" stroke-miterlimit="10"/>
<path d="M81.88 250.99C81.88 250.99 82.52 247.13 79.31 243.59C77.37 241.46 66.63 235.56 65.15 239.41C63.54 243.59 74.16 253.24 81.88 250.99Z" fill="#1D77BD" stroke="#263238" stroke-miterlimit="10"/>
<path d="M81.88 250.99L71.88 243.21" stroke="#263238" stroke-width="0.5" stroke-miterlimit="10"/>
<path d="M87.03 224.78L79.63 215.12" stroke="#263238" stroke-width="2" stroke-miterlimit="10"/>
<path d="M81.88 218.02C81.88 218.02 82.52 214.16 79.31 210.62C77.37 208.49 66.63 202.59 65.15 206.44C63.54 210.62 74.16 220.27 81.88 218.02Z" fill="#1D77BD" stroke="#263238" stroke-miterlimit="10"/>
<path d="M81.88 218.02L71.88 210.24" stroke="#263238" stroke-width="0.5" stroke-miterlimit="10"/>
<path d="M86.87 394.72L94.27 385.07" stroke="#263238" stroke-width="2" stroke-miterlimit="10"/>
<path d="M92.01 387.96C92.01 387.96 91.37 384.1 94.58 380.56C96.52 378.43 107.26 372.53 108.74 376.38C110.35 380.56 99.74 390.21 92.01 387.96Z" fill="#1D77BD" stroke="#263238" stroke-miterlimit="10"/>
<path d="M92.01 387.96L102.61 379.76" stroke="#263238" stroke-width="0.5" stroke-miterlimit="10"/>
<path d="M86.87 327.91L94.27 318.26" stroke="#263238" stroke-width="2" stroke-miterlimit="10"/>
<path d="M92.01 321.16C92.01 321.16 91.37 317.3 94.58 313.76C96.52 311.63 107.26 305.73 108.74 309.58C110.35 313.76 99.74 323.41 92.01 321.16Z" fill="#1D77BD" stroke="#263238" stroke-miterlimit="10"/>
<path d="M92.01 321.16L102.61 312.96" stroke="#263238" stroke-width="0.5" stroke-miterlimit="10"/>
<path d="M86.87 294.94L94.27 285.29" stroke="#263238" stroke-width="2" stroke-miterlimit="10"/>
<path d="M92.01 288.19C92.01 288.19 91.37 284.33 94.58 280.79C96.52 278.66 107.26 272.76 108.74 276.61C110.35 280.79 99.74 290.44 92.01 288.19Z" fill="#1D77BD" stroke="#263238" stroke-miterlimit="10"/>
<path d="M92.01 288.19L102.61 279.99" stroke="#263238" stroke-width="0.5" stroke-miterlimit="10"/>
<path d="M86.87 251.36L94.27 241.71" stroke="#263238" stroke-width="2" stroke-miterlimit="10"/>
<path d="M92.01 244.61C92.01 244.61 91.37 240.75 94.58 237.21C96.52 235.08 107.26 229.18 108.74 233.03C110.35 237.21 99.74 246.86 92.01 244.61Z" fill="#1D77BD" stroke="#263238" stroke-miterlimit="10"/>
<path d="M92.01 244.61L102.61 236.41" stroke="#263238" stroke-width="0.5" stroke-miterlimit="10"/>
<path d="M86.87 217.1L94.27 207.45" stroke="#263238" stroke-width="2" stroke-miterlimit="10"/>
<path d="M92.01 210.35C92.01 210.35 91.37 206.49 94.58 202.95C96.52 200.82 107.26 194.92 108.74 198.77C110.35 202.95 99.74 212.6 92.01 210.35Z" fill="#1D77BD" stroke="#263238" stroke-miterlimit="10"/>
<path d="M92.01 210.35L102.61 202.15" stroke="#263238" stroke-width="0.5" stroke-miterlimit="10"/>
<path d="M86.42 195.15C86.42 195.15 85.78 191.29 88.99 187.75C90.93 185.62 101.67 179.72 103.15 183.57C104.76 187.75 94.14 197.4 86.42 195.15Z" fill="#1D77BD" stroke="#263238" stroke-miterlimit="10"/>
<path d="M86.42 195.15L97.01 186.95" stroke="#263238" stroke-width="0.5" stroke-miterlimit="10"/>
<path d="M86.94 195.61C86.94 195.61 83.03 195.85 79.85 192.27C77.94 190.12 73.2 178.82 77.18 177.75C81.5 176.59 89.99 188.16 86.94 195.61Z" fill="#1D77BD" stroke="#263238" stroke-miterlimit="10"/>
<path d="M86.94 195.61L79.9 184.21" stroke="#263238" stroke-width="0.5" stroke-miterlimit="10"/>
<path d="M96.05 473.47H72.38L69.42 413.69H99.01L96.05 473.47Z" fill="#263238" stroke="#263238" stroke-miterlimit="10"/>
<path d="M309.91 230.54H382.9L365.9 293.16H292.91L309.91 230.54Z" fill="#656262" stroke="#263238" stroke-miterlimit="10" stroke-linecap="round" stroke-linejoin="round"/>
<path d="M312 232.87H379.55L363.82 290.83H296.27L312 232.87Z" fill="white" stroke="#263238" stroke-miterlimit="10" stroke-linecap="round" stroke-linejoin="round"/>
<path d="M365.9 289.83H263.58V293.16H365.9V289.83Z" fill="#656262" stroke="#263238" stroke-miterlimit="10" stroke-linecap="round" stroke-linejoin="round"/>
<path d="M365.9 289.83H318.88V293.16H365.9V289.83Z" fill="#494646" stroke="#263238" stroke-miterlimit="10" stroke-linecap="round" stroke-linejoin="round"/>
<path d="M236.35 298.47H230.85V473.08H236.35V298.47Z" fill="white" stroke="#263238" stroke-miterlimit="10" stroke-linecap="round" stroke-linejoin="round"/>
<path d="M226.152 473.074H230.852L230.852 298.464H226.152L226.152 473.074Z" fill="#8E8B8B" stroke="#263238" stroke-miterlimit="10" stroke-linecap="round" stroke-linejoin="round"/>
<path d="M377.25 389.83H371.75V473.08H377.25V389.83Z" fill="white" stroke="#263238" stroke-miterlimit="10" stroke-linecap="round" stroke-linejoin="round"/>
<path d="M367.054 473.078H371.754V389.828H367.054V473.078Z" fill="#8E8B8B" stroke="#263238" stroke-miterlimit="10" stroke-linecap="round" stroke-linejoin="round"/>
<path d="M436.14 389.83H430.64V473.08H436.14V389.83Z" fill="white" stroke="#263238" stroke-miterlimit="10" stroke-linecap="round" stroke-linejoin="round"/>
<path d="M425.939 473.078H430.639V389.828H425.939V473.078Z" fill="#8E8B8B" stroke="#263238" stroke-miterlimit="10" stroke-linecap="round" stroke-linejoin="round"/>
<path d="M317.232 394.586H370.892V300.166H317.232V394.586Z" fill="#8E8B8B" stroke="#263238" stroke-miterlimit="10" stroke-linecap="round" stroke-linejoin="round"/>
<path d="M441.6 300.16H370.89V394.58H441.6V300.16Z" fill="white" stroke="#263238" stroke-miterlimit="10" stroke-linecap="round" stroke-linejoin="round"/>
<path d="M370.89 300.16H317.24V304.76H370.89H441.6V300.16H370.89Z" fill="#263238" stroke="#263238" stroke-miterlimit="10" stroke-linecap="round" stroke-linejoin="round"/>
<path d="M367.56 305.57H321.81V327.61H367.56V305.57Z" fill="white" stroke="#263238" stroke-miterlimit="10" stroke-linecap="round" stroke-linejoin="round"/>
<path d="M350.72 314.51H338.66V318.67H350.72V314.51Z" fill="#263238"/>
<path d="M367.56 335.93H321.81V357.97H367.56V335.93Z" fill="white" stroke="#263238" stroke-miterlimit="10" stroke-linecap="round" stroke-linejoin="round"/>
<path d="M350.72 344.46H338.66V348.62H350.72V344.46Z" fill="#263238"/>
<path d="M367.56 366.3H321.81V388.34H367.56V366.3Z" fill="white" stroke="#263238" stroke-miterlimit="10" stroke-linecap="round" stroke-linejoin="round"/>
<path d="M350.72 374.41H338.66V378.57H350.72V374.41Z" fill="#263238"/>
<path d="M448.9 296.02H218.57V301.51H448.9V296.02Z" fill="#8E8B8B" stroke="#263238" stroke-miterlimit="10" stroke-linecap="round" stroke-linejoin="round"/>
<path d="M448.9 296.02H379.35V301.51H448.9V296.02Z" fill="white" stroke="#263238" stroke-miterlimit="10" stroke-linecap="round" stroke-linejoin="round"/>
<path d="M238.1 351.9C238.1 351.9 244.96 356.65 255.14 386C258.53 395.77 277.53 448.39 278.53 452.06C279.53 455.73 281.53 460.06 284.53 460.06C287.53 460.06 298.53 446.06 297.2 444.39C295.87 442.72 289.53 436.06 289.53 436.06C289.53 436.06 285.75 393.46 285.08 381.46C284.41 369.46 287.14 355 280.81 345.34C274.48 335.67 246.48 345.67 246.48 345.67L238.1 351.9Z" fill="white" stroke="#263238" stroke-miterlimit="10" stroke-linecap="round" stroke-linejoin="round"/>
<path d="M292.53 436.06C292.53 436.06 289.86 437.39 290.2 440.39C290.53 443.39 293.53 447.39 293.53 447.39C293.53 447.39 287.2 452.39 283.86 452.72C280.53 453.05 276.86 453.72 276.86 454.72C276.86 455.72 279.53 457.39 281.19 461.05C282.86 464.72 286.52 470.38 287.52 471.72C288.52 473.05 289.19 474.05 292.85 473.05C296.52 472.05 304.52 464.72 308.85 461.72C313.18 458.72 326.18 456.72 328.52 455.05C330.85 453.38 338.19 442.72 334.85 440.72C331.52 438.72 330.52 441.05 326.52 442.05C322.52 443.05 310.85 441.72 304.52 440.38C298.19 439.05 296.19 438.71 296.19 438.71L292.53 436.06Z" fill="#1D77BD" stroke="#263238" stroke-miterlimit="10" stroke-linecap="round" stroke-linejoin="round"/>
<path d="M286.99 470.96C287.21 471.28 287.39 471.54 287.53 471.72C288.53 473.05 289.2 474.05 292.86 473.05C296.53 472.05 304.53 464.72 308.86 461.72C313.19 458.72 326.19 456.72 328.53 455.05C330.86 453.38 338.2 442.72 334.86 440.72C334.3 440.38 333.8 440.18 333.35 440.06C333.41 440.28 333.47 440.48 333.53 440.72C334.53 444.72 331.2 448.72 328.2 451.72C325.2 454.72 315.2 454.05 304.2 459.72C296.51 463.68 290.14 468.45 286.99 470.96Z" fill="white" stroke="#263238" stroke-miterlimit="10" stroke-linecap="round" stroke-linejoin="round"/>
<path d="M286.67 402.7C285.95 393.94 285.32 385.74 285.08 381.45C284.41 369.45 287.14 354.99 280.81 345.33C274.48 335.66 246.48 345.66 246.48 345.66L238.11 351.89C238.11 351.89 244.97 356.64 255.15 385.99C256.44 389.73 260.02 399.73 264.01 410.87L286.67 402.7Z" fill="#263238" stroke="#263238" stroke-miterlimit="10" stroke-linecap="round" stroke-linejoin="round"/>
<path d="M270.35 180.91C270.35 180.91 271.86 184.84 271.56 188.17C271.26 191.5 268.23 193.01 267.93 192.1C267.63 191.19 267.63 188.77 267.63 187.56C267.63 186.35 267.63 186.35 267.63 186.35C267.63 186.35 267.03 187.56 264.91 189.68C262.79 191.8 261.58 191.19 260.68 191.19C259.78 191.19 259.47 188.17 260.98 186.05C262.49 183.94 267.33 179.1 270.35 180.91Z" fill="white" stroke="#263238" stroke-miterlimit="10" stroke-linecap="round" stroke-linejoin="round"/>
<path d="M277.31 188.77C274.29 186.96 269.75 193.31 262.79 191.79C261.9 191.6 261.58 190.28 263.09 187.25C264.6 184.23 269.44 181.81 271.86 179.99C274.28 178.18 276.09 176.66 276.09 174.55C276.09 172.43 270.65 175.76 269.13 176.97C268.44 177.52 265.98 178.77 263.42 180.02C263.05 180.03 262.61 180.05 262.12 180.08C259.42 180.25 255.28 180.73 253.7 182.11C251.64 183.91 250.47 190.06 249.97 192.43C248.63 194.37 247.43 196.15 246.74 197.23C244.62 200.56 201.98 231.71 201.98 231.71L205 258.32L253.39 203.28C253.39 203.28 254.6 202.07 257.93 200.86C261.26 199.65 265.79 198.74 269.73 196.63C273.66 194.51 273.96 194.21 278.2 191.49C280.27 190.18 278.95 189.76 277.31 188.77Z" fill="white" stroke="#263238" stroke-miterlimit="10" stroke-linecap="round" stroke-linejoin="round"/>
<path d="M226.45 213.58C214.6 222.52 202 231.72 202 231.72L205.02 258.33L234.74 224.52L226.45 213.58Z" fill="#1D77BD" stroke="#263238" stroke-miterlimit="10" stroke-linecap="round" stroke-linejoin="round"/>
<path d="M211.57 314.2C211.57 314.2 232.9 313.2 263.9 318.2C294.9 323.2 306.5 328.52 305.57 334.53C301.79 358.88 244.96 439 244.96 439L245.96 450.33C245.96 450.33 243.96 453 236.96 453.33C229.96 453.66 221.29 443.66 221.29 443.66C221.29 443.66 229.11 435.57 232.11 425.9C235.11 416.23 259.23 353.86 259.23 353.86C259.23 353.86 227.56 360.86 192.56 354.53C157.57 348.2 211.57 314.2 211.57 314.2Z" fill="white" stroke="#263238" stroke-miterlimit="10" stroke-linecap="round" stroke-linejoin="round"/>
<path d="M263.9 318.2C232.9 313.2 211.57 314.2 211.57 314.2C211.57 314.2 157.57 348.2 192.57 354.53C227.57 360.86 259.24 353.86 259.24 353.86C259.24 353.86 249.2 379.82 241.27 400.84L264.78 409.88C281.57 384.41 303.29 349.26 305.57 334.53C306.5 328.53 294.9 323.2 263.9 318.2Z" fill="#263238" stroke="#263238" stroke-miterlimit="10" stroke-linecap="round" stroke-linejoin="round"/>
<path d="M244.96 439C244.96 439 242.96 439.67 241.96 442C240.96 444.33 240.29 446.67 240.29 446.67C240.29 446.67 233.96 445.34 229.62 443.34C225.29 441.34 222.29 439.34 222.29 439.34C222.29 439.34 219.29 439.67 219.29 441.67C219.29 443.67 218.96 447.34 217.62 450.67C216.76 452.82 214.94 457.59 213.74 460.71C213.15 462.26 214.07 463.97 215.69 464.33C220.97 465.5 232.09 468.07 241.61 471C254.61 475 268.94 473 270.61 472.67C272.28 472.34 278.94 468.34 275.94 465.67C272.94 463 255.27 456 251.61 451.34C247.96 446.67 244.96 439 244.96 439Z" fill="#1D77BD" stroke="#263238" stroke-miterlimit="10" stroke-linecap="round" stroke-linejoin="round"/>
<path d="M274.62 464.73C274.6 468.04 272.92 471.33 267.62 471.33C262.29 471.33 252.95 470.66 239.62 465.33C229.09 461.12 218.77 458.57 214.9 457.69C214.49 458.77 214.09 459.81 213.75 460.71C213.16 462.26 214.08 463.97 215.7 464.33C220.98 465.5 232.1 468.07 241.62 471C254.62 475 268.95 473 270.62 472.67C272.29 472.34 278.95 468.34 275.95 465.67C275.66 465.4 275.2 465.09 274.62 464.73Z" fill="white" stroke="#263238" stroke-miterlimit="10" stroke-linecap="round" stroke-linejoin="round"/>
<path d="M144.23 236.56C144.23 236.56 140.6 265.29 140.9 270.74C141.2 276.18 145.13 323.06 146.04 333.35C146.95 343.63 151.18 352.71 158.74 354.52C166.3 356.33 185.96 359.06 194.43 356.94C202.9 354.82 211.97 335.77 215 328.51C218.02 321.25 220.14 316.71 219.23 315.2C218.32 313.69 214.39 310.36 214.39 310.36C214.39 310.36 206.83 255.32 205.01 241.1C203.2 226.89 204.1 225.68 197.45 220.23C190.81 214.79 156.33 210.25 144.23 236.56Z" fill="#1D77BD" stroke="#263238" stroke-miterlimit="10" stroke-linecap="round" stroke-linejoin="round"/>
<path d="M192.63 336.85C191.54 337.68 190.4 338.47 189.24 339.21L192.63 336.85Z" fill="#1D77BD"/>
<path d="M192.63 336.85C191.54 337.68 190.4 338.47 189.24 339.21" stroke="#263238" stroke-miterlimit="10" stroke-linecap="round" stroke-linejoin="round"/>
<path d="M212.57 312.54C212.57 312.54 206.15 325.14 195.52 334.48L212.57 312.54Z" fill="#1D77BD"/>
<path d="M212.57 312.54C212.57 312.54 206.15 325.14 195.52 334.48" stroke="#263238" stroke-miterlimit="10" stroke-linecap="round" stroke-linejoin="round"/>
<path d="M207.9 313.2C207.9 313.2 197.57 322.87 187.23 328.87L207.9 313.2Z" fill="#1D77BD"/>
<path d="M207.9 313.2C207.9 313.2 197.57 322.87 187.23 328.87" stroke="#263238" stroke-miterlimit="10" stroke-linecap="round" stroke-linejoin="round"/>
<path d="M216.21 146.13C216.21 146.13 219.23 152.48 220.14 157.02C221.05 161.56 221.35 165.79 223.47 166.7C225.59 167.61 229.52 167.91 228.91 170.33C228.31 172.75 224.37 176.68 224.37 176.68C224.37 176.68 225.28 191.2 224.97 193.92C224.67 196.64 208.64 196.64 207.73 196.64C206.82 196.64 197.75 218.11 197.75 218.11L172.34 205.41L177.18 189.68C177.18 189.68 169.32 174.56 168.71 167.9C168.11 161.25 183.53 149.15 192.3 146.43C201.09 143.71 216.21 146.13 216.21 146.13Z" fill="white" stroke="#263238" stroke-miterlimit="10" stroke-linecap="round" stroke-linejoin="round"/>
<path d="M207.75 196.64L199.68 194.33L202.7 206.14L207.75 196.64Z" fill="#263238" stroke="#263238" stroke-miterlimit="10" stroke-linecap="round" stroke-linejoin="round"/>
<path d="M219.21 163.24C219.62 164.95 219.42 166.45 218.77 166.61C218.12 166.77 217.26 165.51 216.85 163.8C216.44 162.09 216.64 160.59 217.29 160.43C217.94 160.28 218.8 161.53 219.21 163.24Z" fill="#263238"/>
<path d="M214.7 140.38C214.7 140.38 218.93 147.94 215.91 152.78C212.89 157.62 205.63 159.74 201.7 164.27C197.77 168.81 195.65 176.67 194.14 177.28C192.63 177.88 188.09 168.81 185.37 169.42C182.65 170.02 178.11 176.38 182.04 183.03C185.97 189.68 192.93 188.78 192.93 188.78C192.93 188.78 182.04 194.53 179.92 194.53C177.8 194.53 171.45 190.9 168.43 187.57C165.41 184.24 154.52 174.26 153.91 166.1C153.3 157.94 164.19 147.65 164.19 147.65C164.19 147.65 151.18 146.74 154.51 141.9C157.84 137.06 169.63 134.04 169.63 134.04C169.63 134.04 167.51 126.48 170.54 124.97C173.56 123.46 192.01 129.51 192.01 129.51C192.01 129.51 186.87 122.86 194.13 122.55C201.39 122.24 213.79 131.31 214.7 140.38Z" fill="#263238" stroke="#263238" stroke-miterlimit="10" stroke-linecap="round" stroke-linejoin="round"/>
<path d="M190.63 173.22L229.22 157.62" stroke="#263238" stroke-miterlimit="10" stroke-linecap="round" stroke-linejoin="round"/>
<path d="M219.16 155.44C219.97 155.1 220.87 154.91 221.81 154.91C225.57 154.91 228.62 157.96 228.62 161.71C228.62 164.26 227.22 166.48 225.14 167.65" stroke="#263238" stroke-miterlimit="10" stroke-linecap="round" stroke-linejoin="round"/>
<path d="M205.02 226.58C205.02 226.58 204.72 217.81 202.3 215.39C199.88 212.97 182.04 202.99 173.87 200.87C165.7 198.75 157.24 201.78 151.79 203.59C146.35 205.4 142.72 210.55 140.6 221.74C138.48 232.93 138.18 239.89 142.72 240.49C147.26 241.09 153.61 227.48 167.82 224.76C182.03 222.04 195.04 224.46 198.06 225.97C201.09 227.49 205.02 226.58 205.02 226.58Z" fill="#1D77BD" stroke="#263238" stroke-miterlimit="10" stroke-linecap="round" stroke-linejoin="round"/>
<path d="M159.09 217.3C156.36 218.26 154.52 219.02 154.52 219.02L159.09 217.3Z" fill="#1D77BD"/>
<path d="M159.09 217.3C156.36 218.26 154.52 219.02 154.52 219.02" stroke="#263238" stroke-miterlimit="10" stroke-linecap="round" stroke-linejoin="round"/>
<path d="M205.02 226.58C205.02 226.58 185.97 215.99 179.01 213.88C175.38 212.77 168.86 214.23 163.45 215.87" fill="#1D77BD"/>
<path d="M205.02 226.58C205.02 226.58 185.97 215.99 179.01 213.88C175.38 212.77 168.86 214.23 163.45 215.87" stroke="#263238" stroke-miterlimit="10" stroke-linecap="round" stroke-linejoin="round"/>
<path d="M294.83 275.74C294.83 275.74 293.84 282.03 292.67 282.74C291.5 283.46 291.59 276.9 291.59 276.9C291.59 276.9 290.15 280.67 289.26 281.57C288.36 282.47 288.9 277.71 288.9 277.71L289.89 273.22L294.83 275.74Z" fill="white" stroke="#263238" stroke-miterlimit="10" stroke-linecap="round" stroke-linejoin="round"/>
<path d="M282.03 269.51L291.31 269.66C291.31 269.66 293.76 270.01 294.11 271.41C294.46 272.81 295.86 275.96 295.86 275.96L281.51 271.76L282.03 269.51Z" fill="white" stroke="#263238" stroke-miterlimit="10" stroke-linecap="round" stroke-linejoin="round"/>
<path d="M285.35 272.47C285.35 272.47 298.3 270.72 298.65 271.77C298.91 272.56 299.92 279.68 300.13 281.98C300.16 282.34 299.7 282.53 299.48 282.24L295.85 275.98L286.05 276.68C286.05 276.67 283.25 274.22 285.35 272.47Z" fill="white" stroke="#263238" stroke-miterlimit="10" stroke-linecap="round" stroke-linejoin="round"/>
<path d="M177.88 233.26C177.88 233.26 169.83 239.21 172.63 253.92C175.43 268.62 195.04 308.88 196.79 312.39C198.54 315.89 206.24 316.24 209.74 315.19C213.24 314.14 275.56 289.28 275.56 289.28C275.56 289.28 282.21 287.53 283.26 286.13C284.31 284.73 290.96 277.38 290.96 277.38C290.96 277.38 301.46 278.78 303.91 278.08C306.36 277.38 301.46 276.68 299.01 275.98C297.12 275.44 286.71 271.37 282.03 269.53C280.65 268.99 279.09 269.32 278.05 270.38C274.77 273.74 267.78 280.87 266.45 281.93C264.7 283.33 215.34 291.73 215.34 291.73C215.34 291.73 203.79 237.47 199.24 232.91C194.69 228.35 186.64 229.41 186.64 229.41" fill="#1D77BD"/>
<path d="M177.88 233.26C177.88 233.26 169.83 239.21 172.63 253.92C175.43 268.62 195.04 308.88 196.79 312.39C198.54 315.89 206.24 316.24 209.74 315.19C213.24 314.14 275.56 289.28 275.56 289.28C275.56 289.28 282.21 287.53 283.26 286.13C284.31 284.73 290.96 277.38 290.96 277.38C290.96 277.38 301.46 278.78 303.91 278.08C306.36 277.38 301.46 276.68 299.01 275.98C297.12 275.44 286.71 271.37 282.03 269.53C280.65 268.99 279.09 269.32 278.05 270.38C274.77 273.74 267.78 280.87 266.45 281.93C264.7 283.33 215.34 291.73 215.34 291.73C215.34 291.73 203.79 237.47 199.24 232.91C194.69 228.35 186.64 229.41 186.64 229.41" stroke="#263238" stroke-miterlimit="10" stroke-linecap="round" stroke-linejoin="round"/>
<path d="M242.99 302.21C259.34 295.73 275.55 289.27 275.55 289.27C275.55 289.27 282.2 287.52 283.25 286.12C284.3 284.72 290.95 277.37 290.95 277.37C290.95 277.37 301.45 278.77 303.9 278.07C306.35 277.37 301.45 276.67 299 275.97C297.11 275.43 286.7 271.36 282.02 269.52C280.64 268.98 279.08 269.31 278.04 270.37C274.76 273.73 267.77 280.86 266.44 281.92C265.53 282.65 251.74 285.27 238.71 287.62L242.99 302.21Z" fill="white" stroke="#263238" stroke-miterlimit="10" stroke-linecap="round" stroke-linejoin="round"/>
<path d="M133.57 371.12L118.32 472.46C118.12 473.49 119.61 473.86 119.93 472.86L142.9 372.78L133.57 371.12Z" fill="#817E7E" stroke="#263238" stroke-miterlimit="10" stroke-linecap="round" stroke-linejoin="round"/>
<path d="M156.33 371.78L162.97 472.27C163.05 473.31 164.59 473.28 164.63 472.24L165.78 370.95L156.33 371.78Z" fill="#817E7E" stroke="#263238" stroke-miterlimit="10" stroke-linecap="round" stroke-linejoin="round"/>
<path d="M178.7 373.3L196.9 472.03C197.12 473.05 198.64 472.81 198.53 471.77L187.93 371.15L178.7 373.3Z" fill="#817E7E" stroke="#263238" stroke-miterlimit="10" stroke-linecap="round" stroke-linejoin="round"/>
<path d="M213.88 372.46L228.77 471.87C228.95 472.9 230.48 472.72 230.41 471.67L223.19 370.69L213.88 372.46Z" fill="#817E7E" stroke="#263238" stroke-miterlimit="10" stroke-linecap="round" stroke-linejoin="round"/>
<path d="M199.65 352.23C199.65 352.23 182.15 346.4 173.98 325.39C165.81 304.39 152.39 268.21 143.06 263.54C133.72 258.87 115.64 267.62 114.47 301.47C113.3 335.31 116.04 360.49 123.58 368.79C130.25 376.12 141.58 385.46 180.91 386.12C216.03 386.72 230.38 373.33 235.24 368.79C240.24 364.12 248.08 354.57 241.66 354.57C235.24 354.57 207.82 354.57 199.65 352.23Z" fill="white" stroke="#263238" stroke-miterlimit="10" stroke-linecap="round" stroke-linejoin="round"/>
<path d="M328.976 269.061C328.361 269.061 327.81 269.173 327.324 269.395C326.843 269.618 326.436 269.94 326.102 270.362C325.768 270.778 325.513 271.285 325.337 271.883C325.161 272.475 325.074 273.143 325.074 273.887C325.074 274.883 325.214 275.741 325.495 276.462C325.777 277.177 326.204 277.728 326.779 278.114C327.353 278.495 328.079 278.686 328.958 278.686C329.503 278.686 330.034 278.633 330.549 278.527C331.065 278.422 331.598 278.278 332.149 278.097V279.89C331.627 280.095 331.1 280.244 330.567 280.338C330.034 280.432 329.418 280.478 328.721 280.478C327.409 280.478 326.319 280.206 325.451 279.661C324.59 279.116 323.946 278.349 323.518 277.358C323.096 276.368 322.885 275.208 322.885 273.878C322.885 272.905 323.02 272.015 323.289 271.206C323.559 270.397 323.951 269.7 324.467 269.114C324.983 268.522 325.618 268.068 326.374 267.752C327.136 267.43 328.006 267.269 328.985 267.269C329.629 267.269 330.262 267.342 330.883 267.488C331.51 267.629 332.09 267.831 332.623 268.095L331.885 269.835C331.44 269.624 330.974 269.442 330.488 269.29C330.001 269.138 329.497 269.061 328.976 269.061ZM342.326 276.805C342.326 277.566 342.139 278.223 341.764 278.773C341.395 279.324 340.862 279.746 340.164 280.039C339.473 280.332 338.647 280.478 337.686 280.478C337.217 280.478 336.769 280.452 336.341 280.399C335.913 280.347 335.509 280.27 335.128 280.171C334.753 280.065 334.41 279.939 334.1 279.793V277.807C334.621 278.035 335.204 278.243 335.849 278.431C336.493 278.612 337.15 278.703 337.818 278.703C338.363 278.703 338.814 278.633 339.171 278.492C339.534 278.346 339.804 278.141 339.98 277.877C340.156 277.607 340.243 277.294 340.243 276.936C340.243 276.556 340.141 276.233 339.936 275.97C339.731 275.706 339.42 275.466 339.004 275.249C338.594 275.026 338.078 274.789 337.457 274.537C337.035 274.367 336.631 274.174 336.244 273.957C335.864 273.74 335.524 273.485 335.225 273.192C334.926 272.899 334.689 272.554 334.513 272.155C334.343 271.751 334.258 271.276 334.258 270.731C334.258 270.005 334.431 269.384 334.777 268.868C335.128 268.353 335.62 267.957 336.253 267.682C336.892 267.406 337.636 267.269 338.486 267.269C339.159 267.269 339.792 267.339 340.384 267.479C340.982 267.62 341.568 267.819 342.142 268.077L341.474 269.773C340.947 269.557 340.434 269.384 339.936 269.255C339.444 269.126 338.94 269.061 338.424 269.061C337.979 269.061 337.601 269.129 337.29 269.264C336.98 269.398 336.742 269.589 336.578 269.835C336.42 270.075 336.341 270.362 336.341 270.696C336.341 271.071 336.432 271.388 336.614 271.645C336.801 271.897 337.088 272.129 337.475 272.34C337.867 272.551 338.371 272.785 338.987 273.043C339.696 273.336 340.296 273.644 340.788 273.966C341.286 274.288 341.667 274.675 341.931 275.126C342.195 275.571 342.326 276.131 342.326 276.805ZM352.223 276.805C352.223 277.566 352.035 278.223 351.66 278.773C351.291 279.324 350.758 279.746 350.061 280.039C349.369 280.332 348.543 280.478 347.582 280.478C347.114 280.478 346.665 280.452 346.238 280.399C345.81 280.347 345.406 280.27 345.025 280.171C344.65 280.065 344.307 279.939 343.996 279.793V277.807C344.518 278.035 345.101 278.243 345.745 278.431C346.39 278.612 347.046 278.703 347.714 278.703C348.259 278.703 348.71 278.633 349.068 278.492C349.431 278.346 349.701 278.141 349.876 277.877C350.052 277.607 350.14 277.294 350.14 276.936C350.14 276.556 350.037 276.233 349.832 275.97C349.627 275.706 349.317 275.466 348.901 275.249C348.491 275.026 347.975 274.789 347.354 274.537C346.932 274.367 346.528 274.174 346.141 273.957C345.76 273.74 345.42 273.485 345.121 273.192C344.823 272.899 344.585 272.554 344.409 272.155C344.24 271.751 344.155 271.276 344.155 270.731C344.155 270.005 344.327 269.384 344.673 268.868C345.025 268.353 345.517 267.957 346.15 267.682C346.788 267.406 347.533 267.269 348.382 267.269C349.056 267.269 349.689 267.339 350.281 267.479C350.878 267.62 351.464 267.819 352.038 268.077L351.37 269.773C350.843 269.557 350.33 269.384 349.832 269.255C349.34 269.126 348.836 269.061 348.321 269.061C347.875 269.061 347.497 269.129 347.187 269.264C346.876 269.398 346.639 269.589 346.475 269.835C346.317 270.075 346.238 270.362 346.238 270.696C346.238 271.071 346.328 271.388 346.51 271.645C346.698 271.897 346.985 272.129 347.371 272.34C347.764 272.551 348.268 272.785 348.883 273.043C349.592 273.336 350.193 273.644 350.685 273.966C351.183 274.288 351.564 274.675 351.827 275.126C352.091 275.571 352.223 276.131 352.223 276.805Z" fill="#010101"/>
<path d="M275.523 165.706H272.723V157.972H264.824V165.706H262.012V148.574H264.824V155.581H272.723V148.574H275.523V165.706ZM286 165.706H283.176V150.964H278.16V148.574H291.004V150.964H286V165.706ZM301.023 165.706L296.09 151.398H295.984C296.008 151.718 296.035 152.156 296.066 152.71C296.098 153.265 296.125 153.859 296.148 154.492C296.172 155.124 296.184 155.73 296.184 156.308V165.706H293.629V148.574H297.578L302.324 162.249H302.395L307.305 148.574H311.242V165.706H308.559V156.167C308.559 155.644 308.566 155.077 308.582 154.468C308.605 153.859 308.629 153.281 308.652 152.734C308.684 152.187 308.707 151.749 308.723 151.421H308.629L303.508 165.706H301.023ZM315.754 165.706V148.574H318.566V163.316H325.844V165.706H315.754Z" fill="#010101"/>
<path d="M27.73 473.47H493.51" stroke="#263238" stroke-miterlimit="10" stroke-linecap="round" stroke-linejoin="round"/>
</svg>
