<svg width="52" height="54" viewBox="0 0 52 54" fill="none" xmlns="http://www.w3.org/2000/svg">
<rect width="1377" height="5111" transform="translate(-896 -1722)" fill="white"/>
<path d="M51.2188 27.5C51.2188 39.9264 40.2008 50 26.6094 50C13.018 50 2 39.9264 2 27.5C2 15.0736 13.018 5 26.6094 5C40.2008 5 51.2188 15.0736 51.2188 27.5Z" fill="#1D77BD"/>
<path d="M16.5 38.5V22.3125H21.3125V17.5H32.6875V27.125H37.5V38.5H28.5458V33.6875H25.4542V38.5H16.5ZM18.25 36.75H21.3125V33.6875H18.25V36.75ZM18.25 31.9375H21.3125V28.875H18.25V31.9375ZM18.25 27.125H21.3125V24.0625H18.25V27.125ZM23.0625 31.9375H26.125V28.875H23.0625V31.9375ZM23.0625 27.125H26.125V24.0625H23.0625V27.125ZM23.0625 22.3125H26.125V19.25H23.0625V22.3125ZM27.875 31.9375H30.9375V28.875H27.875V31.9375ZM27.875 27.125H30.9375V24.0625H27.875V27.125ZM27.875 22.3125H30.9375V19.25H27.875V22.3125ZM32.6875 36.75H35.75V33.6875H32.6875V36.75ZM32.6875 31.9375H35.75V28.875H32.6875V31.9375Z" fill="white"/>
</svg>
